<svg width="22" height="22" fill="none" xmlns="http://www.w3.org/2000/svg"><path fill-rule="evenodd" clip-rule="evenodd" d="M.632 3.168C0 4.41 0 6.034 0 9.284v3.432c0 3.25 0 4.875.632 6.116a5.802 5.802 0 002.536 2.536C4.41 22 6.034 22 9.284 22h3.432c3.25 0 4.875 0 6.116-.632a5.802 5.802 0 002.536-2.536C22 17.59 22 15.966 22 12.716V9.284c0-3.25 0-4.875-.632-6.116A5.802 5.802 0 0018.832.632C17.59 0 15.966 0 12.716 0H9.284c-3.25 0-4.875 0-6.116.632A5.802 5.802 0 00.632 3.168zM11 14.928a3.929 3.929 0 100-7.857 3.929 3.929 0 000 7.858zM13.357 11a2.357 2.357 0 11-4.714 0 2.357 2.357 0 014.714 0zm-9.7-5.283c-.514 1.008-.514 2.328-.514 4.969v.628c0 2.64 0 3.96.514 4.97a4.715 4.715 0 002.06 2.06c1.008.513 2.328.513 4.969.513h.628c2.64 0 3.96 0 4.97-.514a4.715 4.715 0 002.06-2.06c.513-1.008.513-2.329.513-4.969v-.628c0-2.64 0-3.96-.514-4.97a4.715 4.715 0 00-2.06-2.06c-1.008-.513-2.329-.513-4.969-.513h-.628c-2.64 0-3.96 0-4.97.514a4.714 4.714 0 00-2.06 2.06zm7.029-1.003h.628c1.346 0 2.261.002 2.969.06.689.056 1.04.158 1.287.283a3.143 3.143 0 011.373 1.373c.125.246.227.598.284 1.287.058.708.059 1.623.059 2.969v.628c0 1.346-.002 2.261-.06 2.969-.056.689-.158 1.04-.283 1.287a3.143 3.143 0 01-1.373 1.373c-.246.125-.598.227-1.287.284-.708.058-1.623.059-2.969.059h-.628c-1.346 0-2.261-.002-2.969-.06-.689-.056-1.04-.158-1.287-.283a3.143 3.143 0 01-1.373-1.373c-.125-.246-.227-.598-.284-1.287-.057-.708-.059-1.623-.059-2.969v-.628c0-1.346.002-2.261.06-2.969.056-.689.158-1.04.283-1.287A3.143 3.143 0 016.43 5.057c.246-.125.598-.227 1.287-.284.708-.057 1.623-.059 2.969-.059zM16.5 6.68a1.179 1.179 0 11-2.357 0 1.179 1.179 0 012.357 0z" fill="#FDFDFD"/></svg>