<svg width="22" height="22" fill="none" xmlns="http://www.w3.org/2000/svg"><path fill-rule="evenodd" clip-rule="evenodd" d="M9.284 0h3.432c3.25 0 4.875 0 6.116.632a5.802 5.802 0 012.536 2.536C22 4.41 22 6.034 22 9.284v3.432c0 3.25 0 4.875-.632 6.116a5.802 5.802 0 01-2.536 2.536C17.59 22 15.966 22 12.716 22H9.284c-3.25 0-4.875 0-6.116-.632a5.802 5.802 0 01-2.536-2.536C0 17.59 0 15.966 0 12.716V9.284c0-3.25 0-4.875.632-6.116A5.802 5.802 0 013.168.632C4.41 0 6.034 0 9.284 0zm7.041 12.136c-.092.236-.055.468.115.698.216.242.454.489.696.738.714.737 1.451 1.497 1.68 2.242.08.464-.303.637-.692.637l-2.093.035a.874.874 0 01-.458-.043c-.603-.199-.997-.675-1.395-1.155-.255-.308-.51-.617-.825-.856-.156-.12-.345-.2-.527-.104-.412.216-.422.632-.433 1.053-.008.319-.016.64-.197.88-.24.266-.703.232-1.082.205a4.26 4.26 0 00-.292-.015c-3.916.14-6.47-5.474-7.637-8.371-.14-.391.08-.586.474-.586l2.24-.017c.24.042.468.184.557.43.335.821 1.557 3.782 2.314 3.782.757 0 .568-3.017.31-3.583-.136-.195-.367-.319-.694-.37-.071-.012-.058-.08.04-.207.344-.442 2.448-.573 3.37-.353.182.048.36.134.441.323.184.432.142 1.16.1 1.895-.054.913-.108 1.84.268 2.235.145.037.224.042.351-.06.968-.976 1.628-2.494 2.168-3.738a.46.46 0 01.351-.315l.953.003c.697.003 1.438.006 2.089-.003 1.008 0-.45 2.067-1.433 3.46-.383.543-.694.984-.759 1.16z" fill="#FDFDFD"/></svg>